<svg width="39" height="40" viewBox="0 0 39 40" fill="none" xmlns="http://www.w3.org/2000/svg">
<circle cx="19.3527" cy="20.2116" r="18.2579" stroke="#A95131" stroke-width="1.95621"/>
<circle cx="19.353" cy="20.212" r="16.9538" fill="white" stroke="#F7DDD0" stroke-width="1.95621"/>
<path d="M19.1787 21.0161C20.9941 21.0161 21.7036 22.0595 21.7036 23.2906C21.7036 24.6677 20.8063 25.565 19.4917 25.565C18.1354 25.565 17.2173 24.7512 17.2173 23.228H13.8787C13.8787 26.7126 16.4035 28.5488 19.4083 28.5488C22.5382 28.5488 25.1673 26.5666 25.1673 23.3114C25.1673 20.6823 23.4772 19.013 21.3906 18.387L24.6457 15.5283V12.8366H14.5882V15.7996H20.4098L17.0504 18.7417C17.0087 18.7835 16.9669 18.8043 16.9252 18.8461V21.0161H19.1787Z" fill="black"/>
</svg>
