<svg width="31" height="32" viewBox="0 0 31 32" fill="none" xmlns="http://www.w3.org/2000/svg">
<path fill-rule="evenodd" clip-rule="evenodd" d="M0.375 3.02034C0.375 2.32976 0.641263 1.66747 1.11521 1.17915C1.58917 0.690839 2.23198 0.416507 2.90225 0.416507H28.095C28.4272 0.415948 28.7562 0.482896 29.0632 0.613519C29.3702 0.744141 29.6492 0.935871 29.8842 1.17773C30.1192 1.4196 30.3056 1.70684 30.4327 2.02302C30.5598 2.3392 30.6252 2.67811 30.625 3.02034V28.9765C30.6254 29.3188 30.5602 29.6578 30.4333 29.9741C30.3064 30.2905 30.1201 30.5779 29.8853 30.82C29.6504 31.0621 29.3715 31.2542 29.0646 31.3851C28.7576 31.5161 28.4286 31.5834 28.0964 31.5832H2.90225C2.57025 31.5832 2.24151 31.5158 1.9348 31.3848C1.62809 31.2539 1.34942 31.062 1.11473 30.82C0.880034 30.5781 0.693906 30.2909 0.566981 29.9748C0.440056 29.6587 0.37482 29.32 0.375 28.9779V3.02034ZM12.3485 12.2995H16.4446V14.4188C17.0359 13.2005 18.5484 12.104 20.8212 12.104C25.1786 12.104 26.2113 14.5308 26.2113 18.9833V27.2312H21.8016V19.9977C21.8016 17.4618 21.2104 16.031 19.7089 16.031C17.6257 16.031 16.7595 17.5738 16.7595 19.9977V27.2312H12.3485V12.2995ZM4.786 27.0371H9.197V12.104H4.786V27.0357V27.0371ZM9.82813 7.23351C9.83644 7.62263 9.76924 8.00954 9.63046 8.37154C9.49167 8.73353 9.28411 9.06332 9.01994 9.34155C8.75578 9.61978 8.44034 9.84084 8.09213 9.99177C7.74392 10.1427 7.36995 10.2204 6.99219 10.2204C6.61442 10.2204 6.24046 10.1427 5.89225 9.99177C5.54404 9.84084 5.2286 9.61978 4.96443 9.34155C4.70027 9.06332 4.4927 8.73353 4.35392 8.37154C4.21514 8.00954 4.14793 7.62263 4.15625 7.23351C4.17257 6.46972 4.47853 5.74288 5.00859 5.20865C5.53866 4.67441 6.25068 4.37527 6.99219 4.37527C7.73369 4.37527 8.44572 4.67441 8.97578 5.20865C9.50585 5.74288 9.8118 6.46972 9.82813 7.23351Z" fill="white"/>
</svg>
