<svg width="55" height="49" viewBox="0 0 55 49" fill="none" xmlns="http://www.w3.org/2000/svg">
<path d="M25.181 47.5153C23.2192 49.8983 17.6594 48.0208 18.2572 47.5153C18.855 47.0099 16.741 33.2317 10.5257 27.3247C10.495 30.0698 10.8077 31.8832 13.526 36.8816C4.62675 39.9464 1.71685 25.9515 0 10.2299C11.9337 12.486 21.5589 11.2431 16.8478 27.7285C18.8292 32.2755 22.305 37.3403 25.4284 34.5385C30.8525 30.6953 40.7688 32.8777 41.3365 24.0942L38.4516 26.1132C40.0113 21.5592 40.1815 19.6555 39.3747 17.2294C27.4242 19.1469 26.2866 22.2641 25.0656 31.0936C22.4254 25.9553 21.818 24.4792 23.2192 18.1716C26.6728 10.8742 29.7672 8.02691 37.6438 6.86482C43.1193 5.81835 45.9715 4.47077 50.4528 0C51.8167 1.45817 51.9177 3.82461 51.1451 10.2299C46.3459 20.2852 49.3938 18.6087 54.8086 15.6302L54.8378 15.6141C51.2538 36.1942 44.2774 37.1523 32.1048 39.4391C27.7743 36.1124 27.1427 45.1323 25.181 47.5153Z" fill="white"/>
</svg>
