<svg width="153" height="155" viewBox="0 0 153 155" fill="none" xmlns="http://www.w3.org/2000/svg">
<rect x="98.1926" y="52.6035" width="21.918" height="101.7" fill="#383838"/>
<rect x="130.631" y="30.6855" width="21.918" height="123.618" fill="#383838"/>
<rect x="65.7539" y="74.5215" width="21.918" height="79.7816" fill="#383838"/>
<rect x="33.3152" y="94.6855" width="21.918" height="59.617" fill="#383838"/>
<rect y="110.467" width="21.918" height="43.836" fill="#383838"/>
<path fill-rule="evenodd" clip-rule="evenodd" d="M125.372 4.82196C125.372 7.48506 123.213 9.64393 120.55 9.64393C117.887 9.64393 115.728 7.48506 115.728 4.82196C115.728 2.15887 117.887 0 120.55 0C123.213 0 125.372 2.15887 125.372 4.82196ZM136.308 7.91319C137.507 9.11142 137.507 11.0543 136.309 12.2527C136.28 12.2818 136.24 12.3237 136.188 12.3768L136.188 12.3769C135.594 12.9965 133.525 15.1515 130.339 16.5605C127.345 17.8843 123.449 18.5239 118.934 17.0599L113.265 27.7314L120.744 31.9591C121.725 32.5135 122.323 33.5609 122.303 34.6874C122.282 35.8139 121.645 36.8383 120.644 37.356L107.932 43.9314C106.427 44.71 104.575 44.1209 103.797 42.6156C103.018 41.1104 103.607 39.2589 105.112 38.4804L112.787 34.5108L107.642 31.6031C107.546 31.5486 107.453 31.4895 107.365 31.4264L98.7021 47.4847C97.8975 48.9762 96.0361 49.5331 94.5446 48.7284C93.0531 47.9238 92.4963 46.0624 93.3009 44.5709L110.062 13.5013C107.919 13.0503 106.434 13.2979 105.314 13.7498C103.276 14.5721 101.765 16.2366 99.6032 18.6179L99.6032 18.6179C99.3152 18.9351 99.0157 19.2651 98.7018 19.6075C97.5566 20.8567 95.6155 20.9411 94.3663 19.7959C93.1171 18.6507 93.0327 16.7097 94.1779 15.4604C94.443 15.1713 94.7171 14.8653 95.0013 14.5478C97.0255 12.2877 99.5657 9.45132 103.018 8.05849C107.306 6.3284 112.348 6.92853 118.89 10.4246C122.796 12.3655 125.766 11.8725 127.857 10.9478C129.888 10.0494 131.2 8.70227 131.805 8.08033L131.806 8.08008C131.867 8.01659 131.922 7.96066 131.969 7.91355C133.167 6.71512 135.11 6.71496 136.308 7.91319Z" fill="#383838"/>
</svg>
