<svg width="565" height="103" viewBox="0 0 565 103" fill="none" xmlns="http://www.w3.org/2000/svg">
<g filter="url(#filter0_d_766_638)">
<rect x="72" y="32.2505" width="22.9813" height="22.9813" rx="2" transform="rotate(-45 72 32.2505)" fill="#9F9F9F"/>
</g>
<path d="M238.827 83.1598C241.647 83.1598 243.487 81.1998 243.487 78.4998C243.487 75.7198 241.667 73.8598 238.827 73.8598H233.207V88.3198H235.167V83.1598H238.827ZM238.487 75.6198C240.327 75.6198 241.427 76.6598 241.427 78.4798C241.427 80.2598 240.347 81.3998 238.407 81.3998H235.167V75.6198H238.487ZM247.307 88.3198V73.5998H245.427V88.3198H247.307ZM252.935 88.5598C254.515 88.5598 255.855 87.8598 256.355 86.7398L256.555 88.3198H258.155V82.1798C258.155 79.5398 256.515 78.2598 254.095 78.2598C251.575 78.2598 249.895 79.5998 249.895 81.6398H251.535C251.535 80.4598 252.435 79.7598 254.015 79.7598C255.335 79.7598 256.315 80.3398 256.315 81.9798V82.2598L253.235 82.4998C250.935 82.6798 249.595 83.7998 249.595 85.5998C249.595 87.3798 250.835 88.5598 252.935 88.5598ZM253.475 87.0998C252.255 87.0998 251.495 86.5798 251.495 85.5398C251.495 84.5798 252.175 83.9398 253.835 83.7798L256.335 83.5798V84.0998C256.335 85.9398 255.255 87.0998 253.475 87.0998ZM262.638 88.3198V83.1398C262.638 81.2398 263.658 79.9798 265.418 79.9798C266.858 79.9798 267.778 80.7798 267.778 82.7598V88.3198H269.658V82.3398C269.658 79.8398 268.478 78.2598 265.898 78.2598C264.518 78.2598 263.278 78.9198 262.658 80.0398L262.458 78.5398H260.758V88.3198H262.638ZM274.142 88.3198V83.1398C274.142 81.2398 275.162 79.9798 276.922 79.9798C278.362 79.9798 279.282 80.7798 279.282 82.7598V88.3198H281.162V82.3398C281.162 79.8398 279.982 78.2598 277.402 78.2598C276.022 78.2598 274.782 78.9198 274.162 80.0398L273.962 78.5398H272.262V88.3198H274.142ZM284.686 76.2198C285.366 76.2198 285.926 75.6598 285.926 74.9798C285.926 74.2798 285.366 73.7398 284.686 73.7398C284.006 73.7398 283.446 74.2798 283.446 74.9798C283.446 75.6598 284.006 76.2198 284.686 76.2198ZM283.766 88.3198H285.646V78.5398H283.766V88.3198ZM290.256 88.3198V83.1398C290.256 81.2398 291.276 79.9798 293.036 79.9798C294.476 79.9798 295.396 80.7798 295.396 82.7598V88.3198H297.276V82.3398C297.276 79.8398 296.096 78.2598 293.516 78.2598C292.136 78.2598 290.896 78.9198 290.276 80.0398L290.076 78.5398H288.376V88.3198H290.256ZM299.26 83.1798C299.26 85.9198 301.02 88.0598 303.8 88.0598C305.34 88.0598 306.62 87.3798 307.26 86.2398V88.1998C307.26 90.0598 306.06 91.2598 304.22 91.2598C302.58 91.2598 301.5 90.4198 301.26 88.9798H299.38C299.74 91.4598 301.56 92.9598 304.22 92.9598C307.22 92.9598 309.12 90.9998 309.12 87.9198V78.5398H307.44L307.3 80.1998C306.68 78.9798 305.46 78.2598 303.88 78.2598C301.04 78.2598 299.26 80.4198 299.26 83.1798ZM301.14 83.1398C301.14 81.3398 302.26 79.8998 304.14 79.8998C306.06 79.8998 307.18 81.2598 307.18 83.1398C307.18 85.0598 306.02 86.4198 304.12 86.4198C302.28 86.4198 301.14 84.9798 301.14 83.1398Z" fill="black"/>
<path d="M420.045 88.3198V86.4998H413.185V81.9198H419.365V80.1798H413.185V75.6598H420.045V73.8598H411.225V88.3198H420.045ZM423.565 88.3198L425.965 84.7398L428.405 88.3198H430.585L427.245 83.4798L430.645 78.5398H428.505L426.085 82.1798L423.605 78.5398H421.425L424.825 83.4798L421.405 88.3198H423.565ZM436.062 88.5598C438.482 88.5598 440.122 87.3798 440.602 85.2798H438.842C438.522 86.3998 437.562 86.9998 436.102 86.9998C434.242 86.9998 433.162 85.8598 433.022 83.7998L440.582 83.7798V83.0798C440.582 80.1798 438.762 78.2598 435.982 78.2598C433.142 78.2598 431.202 80.3798 431.202 83.4398C431.202 86.4798 433.182 88.5598 436.062 88.5598ZM435.982 79.8398C437.642 79.8398 438.702 80.9198 438.702 82.5398H433.062C433.302 80.8198 434.342 79.8398 435.982 79.8398ZM442.042 83.4398C442.042 86.5198 443.942 88.5598 446.822 88.5598C449.182 88.5598 451.002 87.1398 451.382 85.0198H449.502C449.162 86.1798 448.162 86.8798 446.822 86.8798C445.042 86.8798 443.902 85.5198 443.902 83.4198C443.902 81.2998 445.122 79.9398 446.902 79.9398C448.162 79.9398 449.162 80.5998 449.482 81.8398H451.362C451.022 79.6598 449.302 78.2598 446.842 78.2598C443.982 78.2598 442.042 80.3798 442.042 83.4398ZM460.126 78.5398V83.6998C460.126 85.7998 459.186 86.8998 457.466 86.8998C456.026 86.8998 455.126 86.0998 455.126 83.9998V78.5398H453.246V84.6198C453.246 87.0198 454.526 88.5598 456.806 88.5598C458.246 88.5598 459.546 87.8598 460.106 86.8398L460.306 88.3198H461.986V78.5398H460.126ZM467.474 88.3198V80.1198H469.394V78.5398H467.474V75.4798H465.594V78.5398H463.674V80.1198H465.594V88.3198H467.474ZM472.001 76.2198C472.681 76.2198 473.241 75.6598 473.241 74.9798C473.241 74.2798 472.681 73.7398 472.001 73.7398C471.321 73.7398 470.761 74.2798 470.761 74.9798C470.761 75.6598 471.321 76.2198 472.001 76.2198ZM471.081 88.3198H472.961V78.5398H471.081V88.3198ZM475.05 83.4198C475.05 86.4398 477.21 88.5598 480.15 88.5598C483.07 88.5598 485.23 86.4398 485.23 83.4198C485.23 80.3998 483.07 78.2798 480.15 78.2798C477.21 78.2798 475.05 80.3998 475.05 83.4198ZM476.95 83.4198C476.95 81.3798 478.25 79.9598 480.15 79.9598C482.03 79.9598 483.35 81.3798 483.35 83.4198C483.35 85.4598 482.03 86.8798 480.15 86.8798C478.25 86.8798 476.95 85.4598 476.95 83.4198ZM489.191 88.3198V83.1398C489.191 81.2398 490.211 79.9798 491.971 79.9798C493.411 79.9798 494.331 80.7798 494.331 82.7598V88.3198H496.211V82.3398C496.211 79.8398 495.031 78.2598 492.451 78.2598C491.071 78.2598 489.831 78.9198 489.211 80.0398L489.011 78.5398H487.311V88.3198H489.191Z" fill="black"/>
<path d="M125 31.3198H227" stroke="black" stroke-width="0.5"/>
<path d="M314 31.3198L409 31.3198" stroke="black" stroke-width="0.5"/>
<g filter="url(#filter1_d_766_638)">
<rect x="421.68" y="31.8198" width="45" height="45" rx="2" transform="rotate(-45 421.68 31.8198)" fill="#98391E"/>
</g>
<g filter="url(#filter2_d_766_638)">
<rect x="250" y="30.9067" width="29.5659" height="29.8311" rx="2" transform="rotate(-45 250 30.9067)" fill="#D69B41"/>
</g>
<path d="M50.4366 88.3198C54.7166 88.3198 57.5966 85.3998 57.5966 81.0998C57.5966 76.7798 54.6766 73.8598 50.3566 73.8598H45.6566V88.3198H50.4366ZM50.2166 75.6598C53.5166 75.6598 55.5566 77.7398 55.5566 81.0998C55.5566 84.4198 53.5166 86.4998 50.2966 86.4998H47.6166V75.6598H50.2166ZM60.6902 76.2198C61.3702 76.2198 61.9302 75.6598 61.9302 74.9798C61.9302 74.2798 61.3702 73.7398 60.6902 73.7398C60.0102 73.7398 59.4502 74.2798 59.4502 74.9798C59.4502 75.6598 60.0102 76.2198 60.6902 76.2198ZM59.7702 88.3198H61.6502V78.5398H59.7702V88.3198ZM63.5795 85.4798C63.5795 87.3398 65.0395 88.5598 67.3395 88.5598C69.6595 88.5598 71.2595 87.3798 71.2595 85.5198C71.2595 84.0598 70.4395 83.2998 68.7795 82.8998L67.0595 82.4798C66.0995 82.2398 65.6195 81.7998 65.6195 81.1398C65.6195 80.2398 66.2795 79.7198 67.4595 79.7198C68.5995 79.7198 69.2595 80.3398 69.2995 81.3198H71.0995C71.0595 79.4598 69.6595 78.2598 67.5195 78.2598C65.3595 78.2598 63.8395 79.3998 63.8395 81.1998C63.8395 82.6398 64.6595 83.4998 66.3995 83.9198L68.1195 84.3198C69.1395 84.5798 69.4595 84.9798 69.4595 85.6398C69.4595 86.5398 68.6995 87.0798 67.3795 87.0798C66.1395 87.0798 65.3795 86.4798 65.3795 85.4798H63.5795ZM72.7044 83.4398C72.7044 86.5198 74.6044 88.5598 77.4844 88.5598C79.8444 88.5598 81.6644 87.1398 82.0444 85.0198H80.1644C79.8244 86.1798 78.8244 86.8798 77.4844 86.8798C75.7044 86.8798 74.5644 85.5198 74.5644 83.4198C74.5644 81.2998 75.7844 79.9398 77.5644 79.9398C78.8244 79.9398 79.8244 80.5998 80.1444 81.8398H82.0244C81.6844 79.6598 79.9644 78.2598 77.5044 78.2598C74.6444 78.2598 72.7044 80.3798 72.7044 83.4398ZM83.388 83.4198C83.388 86.4398 85.548 88.5598 88.488 88.5598C91.408 88.5598 93.568 86.4398 93.568 83.4198C93.568 80.3998 91.408 78.2798 88.488 78.2798C85.548 78.2798 83.388 80.3998 83.388 83.4198ZM85.288 83.4198C85.288 81.3798 86.588 79.9598 88.488 79.9598C90.368 79.9598 91.688 81.3798 91.688 83.4198C91.688 85.4598 90.368 86.8798 88.488 86.8798C86.588 86.8798 85.288 85.4598 85.288 83.4198ZM97.9398 88.3198H99.7998L103.88 78.5398H101.92L99.7398 83.9998C99.3998 84.8598 99.0798 85.6998 98.9198 86.3398C98.7598 85.7398 98.4798 84.9198 98.1398 83.9998L95.9998 78.5398H93.9998L97.9398 88.3198ZM109.146 88.5598C111.566 88.5598 113.206 87.3798 113.686 85.2798H111.926C111.606 86.3998 110.646 86.9998 109.186 86.9998C107.326 86.9998 106.246 85.8598 106.106 83.7998L113.666 83.7798V83.0798C113.666 80.1798 111.846 78.2598 109.066 78.2598C106.226 78.2598 104.286 80.3798 104.286 83.4398C104.286 86.4798 106.266 88.5598 109.146 88.5598ZM109.066 79.8398C110.726 79.8398 111.786 80.9198 111.786 82.5398H106.146C106.386 80.8198 107.426 79.8398 109.066 79.8398ZM121.366 78.4598C120.986 78.3798 120.706 78.3398 120.366 78.3398C119.026 78.3398 118.046 79.0198 117.646 80.0398L117.526 78.5598H115.766V88.3198H117.646V83.1398C117.646 81.2598 118.746 80.1798 120.526 80.1798H121.366V78.4598ZM122.483 92.6998C122.983 92.8198 123.503 92.8998 124.123 92.8998C125.623 92.8998 126.603 92.1998 127.263 90.5198L131.883 78.5398H129.943L127.043 86.4198L124.203 78.5398H122.223L126.163 88.8398L125.823 89.7798C125.363 91.0198 124.643 91.1598 123.743 91.1598H122.483V92.6998Z" fill="black"/>
<defs>
<filter id="filter0_d_766_638" x="68.8284" y="16.8286" width="38.8438" height="38.8438" filterUnits="userSpaceOnUse" color-interpolation-filters="sRGB">
<feFlood flood-opacity="0" result="BackgroundImageFix"/>
<feColorMatrix in="SourceAlpha" type="matrix" values="0 0 0 0 0 0 0 0 0 0 0 0 0 0 0 0 0 0 127 0" result="hardAlpha"/>
<feOffset dy="4"/>
<feGaussianBlur stdDeviation="2"/>
<feComposite in2="hardAlpha" operator="out"/>
<feColorMatrix type="matrix" values="0 0 0 0 0 0 0 0 0 0 0 0 0 0 0 0 0 0 0.25 0"/>
<feBlend mode="normal" in2="BackgroundImageFix" result="effect1_dropShadow_766_638"/>
<feBlend mode="normal" in="SourceGraphic" in2="effect1_dropShadow_766_638" result="shape"/>
</filter>
<filter id="filter1_d_766_638" x="418.509" y="0.828369" width="69.9828" height="69.9829" filterUnits="userSpaceOnUse" color-interpolation-filters="sRGB">
<feFlood flood-opacity="0" result="BackgroundImageFix"/>
<feColorMatrix in="SourceAlpha" type="matrix" values="0 0 0 0 0 0 0 0 0 0 0 0 0 0 0 0 0 0 127 0" result="hardAlpha"/>
<feOffset dy="4"/>
<feGaussianBlur stdDeviation="2"/>
<feComposite in2="hardAlpha" operator="out"/>
<feColorMatrix type="matrix" values="0 0 0 0 0 0 0 0 0 0 0 0 0 0 0 0 0 0 0.25 0"/>
<feBlend mode="normal" in2="BackgroundImageFix" result="effect1_dropShadow_766_638"/>
<feBlend mode="normal" in="SourceGraphic" in2="effect1_dropShadow_766_638" result="shape"/>
</filter>
<filter id="filter2_d_766_638" x="246.828" y="10.8289" width="48.3433" height="48.3433" filterUnits="userSpaceOnUse" color-interpolation-filters="sRGB">
<feFlood flood-opacity="0" result="BackgroundImageFix"/>
<feColorMatrix in="SourceAlpha" type="matrix" values="0 0 0 0 0 0 0 0 0 0 0 0 0 0 0 0 0 0 127 0" result="hardAlpha"/>
<feOffset dy="4"/>
<feGaussianBlur stdDeviation="2"/>
<feComposite in2="hardAlpha" operator="out"/>
<feColorMatrix type="matrix" values="0 0 0 0 0 0 0 0 0 0 0 0 0 0 0 0 0 0 0.25 0"/>
<feBlend mode="normal" in2="BackgroundImageFix" result="effect1_dropShadow_766_638"/>
<feBlend mode="normal" in="SourceGraphic" in2="effect1_dropShadow_766_638" result="shape"/>
</filter>
</defs>
</svg>
